<svg xmlns="http://www.w3.org/2000/svg" version="1.1" xmlns:xlink="http://www.w3.org/1999/xlink" xmlns:svgjs="http://svgjs.dev/svgjs" width="2000" height="1500" viewBox="0 0 2000 1500"><rect width="2000" height="1500" fill="#ffffff"></rect><g transform="matrix(0.75,0,0,0.75,250,281.25)"><svg viewBox="0 0 512 320" data-background-color="#ffffff" preserveAspectRatio="xMidYMid meet" height="1250" width="2000" xmlns="http://www.w3.org/2000/svg" xmlns:xlink="http://www.w3.org/1999/xlink"><g id="tight-bounds" transform="matrix(1,0,0,1,0,0)"><svg viewBox="0 0 512 320" height="320" width="512"><g><svg></svg></g><g><svg viewBox="0 0 512 320" height="320" width="512"><g><path d="M96 160c0-88.366 71.634-160 160-160 88.366 0 160 71.634 160 160 0 88.366-71.634 160-160 160-88.366 0-160-71.634-160-160z" fill="#915eff" fill-rule="nonzero" stroke="none" stroke-width="1" stroke-linecap="butt" stroke-linejoin="miter" stroke-miterlimit="10" stroke-dasharray="" stroke-dashoffset="0" font-family="none" font-weight="none" font-size="none" text-anchor="none" style="mix-blend-mode: normal" data-fill-palette-color="tertiary"></path></g><g transform="matrix(1,0,0,1,153.6,100.00890302066773)"><svg viewBox="0 0 204.8 119.98219395866455" height="119.98219395866455" width="204.8"><g><svg viewBox="0 0 204.8 119.98219395866455" height="119.98219395866455" width="204.8"><g><svg viewBox="0 0 204.8 119.98219395866455" height="119.98219395866455" width="204.8"><g><svg viewBox="0 0 204.8 119.98219395866455" height="119.98219395866455" width="204.8"><g id="textblocktransform"><svg viewBox="0 0 204.8 119.98219395866455" height="119.98219395866455" width="204.8" id="textblock"><g><svg viewBox="0 0 204.8 119.98219395866455" height="119.98219395866455" width="204.8"><g transform="matrix(1,0,0,1,0,0)"><svg width="204.8" viewBox="4.59 -35.99 61.42 35.99" height="119.98219395866455" data-palette-color="#ffffff"><path d="M26.12-35.99L31.98-35.99 31.98 0 26.12 0 26.12-16.21 12.55-16.21 12.55-20.21 26.12-20.21 26.12-35.99ZM4.59 0L4.59-35.99 10.55-35.99 10.55 0 4.59 0ZM49.36-12.01L59.32-35.99 66.01-35.99 55.32-14.65 55.32 0 49.36 0 49.36-12.01ZM39.21-35.99L45.9-35.99 51.32-21.97 48.68-15.58 39.21-35.99Z" opacity="1" transform="matrix(1,0,0,1,0,0)" fill="#ffffff" class="wordmark-text-0" data-fill-palette-color="quaternary" id="text-0"></path></svg></g></svg></g></svg></g></svg></g><g></g></svg></g></svg></g></svg></g></svg></g><defs></defs></svg><rect width="550" height="500" fill="none" stroke="none" visibility="hidden"></rect></g></svg></g></svg>